<svg id="Capa_1" enable-background="new 0 0 512 512" height="512" viewBox="0 0 512 512" width="512" xmlns="http://www.w3.org/2000/svg"><g><path d="m487.443 237.993c8.985-21.909 14.057-49.482 14.057-78.476 0-29.007-5.083-56.603-14.088-78.533-.026-.064-.052-.127-.079-.19-3.885-9.422-8.49-17.799-13.736-24.775-12.606-16.747-31.214-22.623-49.209-28.306-3.64-1.149-7.402-2.338-10.99-3.586-49.277-17.152-111.074-25.633-174.005-23.907-62.664 1.727-120.938 13.512-164.419 33.208-18.284 1.091-34.842 15.035-46.829 39.558-11.378 23.278-17.645 54.008-17.645 86.531 0 32.533 6.267 63.269 17.646 86.543 11.985 24.515 28.542 38.455 46.827 39.546 10.643 4.824 22.168 9.177 34.433 13.021l98.321 98.383-55.958 55.993c-6.525 6.51-10.119 15.194-10.119 24.456 0 9.261 3.594 17.945 10.108 24.444 6.506 6.511 15.186 10.097 24.439 10.097s17.933-3.586 24.439-10.097l55.959-55.995 55.959 55.995c6.506 6.511 15.185 10.097 24.439 10.097 9.253 0 17.933-3.586 24.438-10.096 13.471-13.479 13.471-35.412 0-48.891l-55.968-56.003 99.06-99.124c2.999-.953 5.958-1.936 8.871-2.95 3.583-1.247 7.34-2.434 10.974-3.58 18.004-5.687 36.622-11.566 49.227-28.339 5.232-6.949 9.827-15.295 13.706-24.683.05-.112.096-.227.142-.341zm-343.559-68.476h124.043c5.522 0 10-4.478 10-10s-4.478-10-10-10h-124.043c-.782-19.562-3.849-38.233-8.941-54.751h336.409c5.593 15.776 9.064 34.631 9.931 54.751h-123.61c-5.522 0-10 4.478-10 10s4.478 10 10 10h123.601c-.894 19.921-4.433 38.923-10.027 54.78h-336.309c5.096-16.524 8.164-35.205 8.946-54.78zm262.941-126.501c3.861 1.343 7.765 2.575 11.54 3.768 15.684 4.953 30.497 9.631 39.25 21.258 1.568 2.085 3.066 4.337 4.498 6.725h-334.84c-.278-.592-.545-1.199-.83-1.781-6.34-12.966-13.957-22.969-22.427-29.686 85.962-30.543 213.386-31.409 302.809-.284zm-376.325 116.501c0-62.565 24.664-106.166 46.8-106.166s46.8 43.601 46.8 106.166-24.664 106.167-46.8 106.167-46.8-43.602-46.8-106.167zm155.989 328.25c-2.728 2.73-6.383 4.233-10.292 4.233s-7.564-1.503-10.303-4.244c-2.737-2.73-4.245-6.388-4.245-10.297 0-3.91 1.507-7.567 4.255-10.309l55.959-55.995 20.594 20.607zm160.796 0c-2.729 2.73-6.384 4.233-10.292 4.233-3.909 0-7.564-1.503-10.293-4.233l-63.036-63.076-.001-.001s-.001 0-.001-.001l-34.73-34.752-81.433-81.485c15.549 3.234 31.866 5.761 48.721 7.537l53.307 53.342s.001.001.001.001l.001.001 97.756 97.819c5.68 5.683 5.68 14.93 0 20.615zm-120.428-169.414c4.157.206 8.336.37 12.535.486 5.385.148 10.753.223 16.114.223 10.385 0 20.71-.281 30.928-.829l-29.841 29.875zm64.469 64.511-20.596-20.609 46.471-46.523c16.89-1.851 33.309-4.462 49.006-7.796zm127.02-110.58c-3.769 1.19-7.665 2.421-11.522 3.763-3.393 1.181-6.846 2.311-10.344 3.4-.103.029-.204.062-.306.094-88.676 27.515-209.563 25.565-292.16-3.8 8.472-6.715 16.089-16.717 22.429-29.681.282-.577.546-1.178.822-1.764h334.814c-1.425 2.391-2.912 4.635-4.465 6.698-8.76 11.655-23.579 16.336-39.268 21.29z"/><path d="m87.3 167.681v-16.299c0-5.522-4.477-10-10-10s-10 4.478-10 10v16.299c0 5.522 4.477 10 10 10s10-4.478 10-10z"/><path d="m312.8 149.517c-5.522 0-10 4.478-10 10s4.478 10 10 10h.028c5.522 0 9.985-4.478 9.985-10s-4.491-10-10.013-10z"/></g></svg>